<mxfile host="app.diagrams.net" modified="2023-11-07T04:02:38.490Z" agent="Mozilla/5.0 (Windows NT 10.0; Win64; x64) AppleWebKit/537.36 (KHTML, like Gecko) Chrome/116.0.5845.931 YaBrowser/23.9.3.931 Yowser/2.5 Safari/537.36" etag="HR7JWPVWxzcIcoZRjqgY" version="22.0.8" type="google">
  <diagram name="Страница — 1" id="cidXnRC4nNPg3S7NG9hr">
    <mxGraphModel dx="1367" dy="575" grid="1" gridSize="10" guides="1" tooltips="1" connect="1" arrows="1" fold="1" page="1" pageScale="1" pageWidth="827" pageHeight="1169" math="0" shadow="0">
      <root>
        <mxCell id="0" />
        <mxCell id="1" parent="0" />
        <mxCell id="M_690RD-DnkeSANrypyQ-1" value="sd user infoDelivery (servName: string, name: FoodService)" style="shape=umlFrame;whiteSpace=wrap;html=1;pointerEvents=0;width=390;height=40;" parent="1" vertex="1">
          <mxGeometry x="110" y="220" width="650" height="460" as="geometry" />
        </mxCell>
        <mxCell id="M_690RD-DnkeSANrypyQ-2" value="user:User" style="html=1;whiteSpace=wrap;" parent="1" vertex="1">
          <mxGeometry x="160" y="290" width="110" height="50" as="geometry" />
        </mxCell>
        <mxCell id="M_690RD-DnkeSANrypyQ-3" value="name: &lt;br&gt;FoodService" style="html=1;whiteSpace=wrap;" parent="1" vertex="1">
          <mxGeometry x="320" y="290" width="110" height="50" as="geometry" />
        </mxCell>
        <mxCell id="M_690RD-DnkeSANrypyQ-4" value="service: Service" style="html=1;whiteSpace=wrap;" parent="1" vertex="1">
          <mxGeometry x="480" y="290" width="110" height="50" as="geometry" />
        </mxCell>
        <mxCell id="M_690RD-DnkeSANrypyQ-6" value="" style="html=1;points=[[0,0,0,0,5],[0,1,0,0,-5],[1,0,0,0,5],[1,1,0,0,-5]];perimeter=orthogonalPerimeter;outlineConnect=0;targetShapes=umlLifeline;portConstraint=eastwest;newEdgeStyle={&quot;curved&quot;:0,&quot;rounded&quot;:0};" parent="1" vertex="1">
          <mxGeometry x="190" y="370" width="10" height="290" as="geometry" />
        </mxCell>
        <mxCell id="M_690RD-DnkeSANrypyQ-7" value="" style="html=1;verticalAlign=bottom;endArrow=block;curved=0;rounded=0;entryX=0;entryY=0;entryDx=0;entryDy=5;" parent="1" target="M_690RD-DnkeSANrypyQ-6" edge="1">
          <mxGeometry relative="1" as="geometry">
            <mxPoint x="110" y="375" as="sourcePoint" />
          </mxGeometry>
        </mxCell>
        <mxCell id="M_690RD-DnkeSANrypyQ-8" value="" style="html=1;verticalAlign=bottom;endArrow=open;dashed=1;endSize=8;curved=0;rounded=0;exitX=0;exitY=1;exitDx=0;exitDy=-5;entryX=0;entryY=0.943;entryDx=0;entryDy=0;entryPerimeter=0;" parent="1" source="M_690RD-DnkeSANrypyQ-6" target="M_690RD-DnkeSANrypyQ-1" edge="1">
          <mxGeometry relative="1" as="geometry">
            <mxPoint x="110" y="545" as="targetPoint" />
          </mxGeometry>
        </mxCell>
        <mxCell id="M_690RD-DnkeSANrypyQ-9" value="" style="html=1;points=[[0,0,0,0,5],[0,1,0,0,-5],[1,0,0,0,5],[1,1,0,0,-5]];perimeter=orthogonalPerimeter;outlineConnect=0;targetShapes=umlLifeline;portConstraint=eastwest;newEdgeStyle={&quot;curved&quot;:0,&quot;rounded&quot;:0};" parent="1" vertex="1">
          <mxGeometry x="360" y="380" width="10" height="60" as="geometry" />
        </mxCell>
        <mxCell id="M_690RD-DnkeSANrypyQ-10" value="addUser(User)" style="html=1;verticalAlign=bottom;endArrow=block;curved=0;rounded=0;entryX=0;entryY=0;entryDx=0;entryDy=5;" parent="1" source="M_690RD-DnkeSANrypyQ-6" target="M_690RD-DnkeSANrypyQ-9" edge="1">
          <mxGeometry relative="1" as="geometry">
            <mxPoint x="290" y="385" as="sourcePoint" />
          </mxGeometry>
        </mxCell>
        <mxCell id="M_690RD-DnkeSANrypyQ-11" value="" style="html=1;verticalAlign=bottom;endArrow=open;dashed=1;endSize=8;curved=0;rounded=0;exitX=0;exitY=1;exitDx=0;exitDy=-5;" parent="1" source="M_690RD-DnkeSANrypyQ-9" target="M_690RD-DnkeSANrypyQ-6" edge="1">
          <mxGeometry relative="1" as="geometry">
            <mxPoint x="290" y="450" as="targetPoint" />
          </mxGeometry>
        </mxCell>
        <mxCell id="M_690RD-DnkeSANrypyQ-12" value="" style="html=1;points=[[0,0,0,0,5],[0,1,0,0,-5],[1,0,0,0,5],[1,1,0,0,-5]];perimeter=orthogonalPerimeter;outlineConnect=0;targetShapes=umlLifeline;portConstraint=eastwest;newEdgeStyle={&quot;curved&quot;:0,&quot;rounded&quot;:0};" parent="1" vertex="1">
          <mxGeometry x="360" y="450" width="10" height="200" as="geometry" />
        </mxCell>
        <mxCell id="M_690RD-DnkeSANrypyQ-13" value="showMenu(servName)" style="html=1;verticalAlign=bottom;endArrow=block;curved=0;rounded=0;entryX=0;entryY=0;entryDx=0;entryDy=5;" parent="1" source="M_690RD-DnkeSANrypyQ-6" target="M_690RD-DnkeSANrypyQ-12" edge="1">
          <mxGeometry relative="1" as="geometry">
            <mxPoint x="290" y="455" as="sourcePoint" />
          </mxGeometry>
        </mxCell>
        <mxCell id="M_690RD-DnkeSANrypyQ-15" value="for each [service in services]" style="shape=umlFrame;whiteSpace=wrap;html=1;pointerEvents=0;width=230;height=20;" parent="1" vertex="1">
          <mxGeometry x="350" y="470" width="300" height="160" as="geometry" />
        </mxCell>
        <mxCell id="M_690RD-DnkeSANrypyQ-16" value="opt[serviceName=name]" style="shape=umlFrame;whiteSpace=wrap;html=1;pointerEvents=0;width=190;height=20;" parent="1" vertex="1">
          <mxGeometry x="340" y="537.5" width="320" height="90" as="geometry" />
        </mxCell>
        <mxCell id="M_690RD-DnkeSANrypyQ-17" value="" style="html=1;points=[[0,0,0,0,5],[0,1,0,0,-5],[1,0,0,0,5],[1,1,0,0,-5]];perimeter=orthogonalPerimeter;outlineConnect=0;targetShapes=umlLifeline;portConstraint=eastwest;newEdgeStyle={&quot;curved&quot;:0,&quot;rounded&quot;:0};" parent="1" vertex="1">
          <mxGeometry x="525" y="565" width="10" height="40" as="geometry" />
        </mxCell>
        <mxCell id="M_690RD-DnkeSANrypyQ-18" value="getInfo()" style="html=1;verticalAlign=bottom;endArrow=block;curved=0;rounded=0;entryX=0;entryY=0;entryDx=0;entryDy=5;" parent="1" source="M_690RD-DnkeSANrypyQ-12" target="M_690RD-DnkeSANrypyQ-17" edge="1">
          <mxGeometry relative="1" as="geometry">
            <mxPoint x="465" y="570" as="sourcePoint" />
          </mxGeometry>
        </mxCell>
        <mxCell id="M_690RD-DnkeSANrypyQ-19" value="" style="html=1;verticalAlign=bottom;endArrow=open;dashed=1;endSize=8;curved=0;rounded=0;exitX=0;exitY=1;exitDx=0;exitDy=-5;" parent="1" source="M_690RD-DnkeSANrypyQ-17" target="M_690RD-DnkeSANrypyQ-12" edge="1">
          <mxGeometry relative="1" as="geometry">
            <mxPoint x="465" y="600" as="targetPoint" />
          </mxGeometry>
        </mxCell>
        <mxCell id="M_690RD-DnkeSANrypyQ-24" value="" style="endArrow=none;dashed=1;html=1;rounded=0;entryX=0.391;entryY=1.02;entryDx=0;entryDy=0;entryPerimeter=0;" parent="1" edge="1">
          <mxGeometry width="50" height="50" relative="1" as="geometry">
            <mxPoint x="364.5800000000002" y="378.9999999999999" as="sourcePoint" />
            <mxPoint x="364.5800000000002" y="340" as="targetPoint" />
          </mxGeometry>
        </mxCell>
        <mxCell id="M_690RD-DnkeSANrypyQ-25" value="" style="endArrow=none;dashed=1;html=1;rounded=0;entryX=0.391;entryY=1.02;entryDx=0;entryDy=0;entryPerimeter=0;" parent="1" edge="1">
          <mxGeometry width="50" height="50" relative="1" as="geometry">
            <mxPoint x="365" y="450" as="sourcePoint" />
            <mxPoint x="364.5" y="440" as="targetPoint" />
          </mxGeometry>
        </mxCell>
        <mxCell id="M_690RD-DnkeSANrypyQ-26" value="" style="endArrow=none;dashed=1;html=1;rounded=0;entryX=0.391;entryY=1.02;entryDx=0;entryDy=0;entryPerimeter=0;exitX=0.391;exitY=0.998;exitDx=0;exitDy=0;exitPerimeter=0;" parent="1" source="M_690RD-DnkeSANrypyQ-1" edge="1">
          <mxGeometry width="50" height="50" relative="1" as="geometry">
            <mxPoint x="364.5" y="689" as="sourcePoint" />
            <mxPoint x="364.5" y="650" as="targetPoint" />
          </mxGeometry>
        </mxCell>
        <mxCell id="M_690RD-DnkeSANrypyQ-27" value="" style="endArrow=none;dashed=1;html=1;rounded=0;entryX=0.5;entryY=1;entryDx=0;entryDy=0;" parent="1" source="CcIXAlpve1feXXLRhf_W-1" edge="1">
          <mxGeometry width="50" height="50" relative="1" as="geometry">
            <mxPoint x="529.5" y="565" as="sourcePoint" />
            <mxPoint x="529.5" y="340" as="targetPoint" />
          </mxGeometry>
        </mxCell>
        <mxCell id="M_690RD-DnkeSANrypyQ-28" value="" style="endArrow=none;dashed=1;html=1;rounded=0;entryX=0.5;entryY=1;entryDx=0;entryDy=0;" parent="1" edge="1">
          <mxGeometry width="50" height="50" relative="1" as="geometry">
            <mxPoint x="530" y="680" as="sourcePoint" />
            <mxPoint x="529.5" y="605" as="targetPoint" />
          </mxGeometry>
        </mxCell>
        <mxCell id="M_690RD-DnkeSANrypyQ-35" value="" style="html=1;verticalAlign=bottom;endArrow=open;dashed=1;endSize=8;curved=0;rounded=0;exitX=0;exitY=1;exitDx=0;exitDy=-5;" parent="1" edge="1">
          <mxGeometry relative="1" as="geometry">
            <mxPoint x="200" y="640" as="targetPoint" />
            <mxPoint x="360" y="640" as="sourcePoint" />
          </mxGeometry>
        </mxCell>
        <mxCell id="df0dbh76qV3VMpQ8JIOW-1" value="&lt;div style=&quot;font-size: 15px;&quot;&gt;На диаграмме изображена последовательность сценария InfoDelivery&lt;span style=&quot;background-color: initial;&quot;&gt;&amp;nbsp;класса User. Первым действием объект user вызывает операцию addUser(), которая сохраняет клиента в коллекцию доставки&lt;/span&gt;&lt;span style=&quot;background-color: initial;&quot;&gt;. Затем вызывает операцию showMenu(servName) у объекта name класса FoodService. С вызовом этой операции мы попадаем в цикл, который для каждого элемента service коллекции services проверяет запрашиваемое имя на наличие в меню. Если оно имеется, вызывается операция getInfo(), которая обращается к объекту service одноименного класса. Эта операция провоцирует вызов другой операции getInfo, которая обращается к объекту cook одноименного класса. Клиенту возвращается информация о поваре и заказе.&amp;nbsp;&amp;nbsp;&lt;/span&gt;&lt;/div&gt;" style="text;html=1;strokeColor=none;fillColor=none;align=center;verticalAlign=middle;whiteSpace=wrap;rounded=0;" parent="1" vertex="1">
          <mxGeometry x="54" y="680" width="720" height="250" as="geometry" />
        </mxCell>
        <mxCell id="CcIXAlpve1feXXLRhf_W-2" value="getName()" style="html=1;verticalAlign=bottom;endArrow=block;curved=0;rounded=0;entryX=0;entryY=0;entryDx=0;entryDy=5;" parent="1" source="M_690RD-DnkeSANrypyQ-12" target="CcIXAlpve1feXXLRhf_W-1" edge="1">
          <mxGeometry x="0.0065" relative="1" as="geometry">
            <mxPoint x="455" y="505" as="sourcePoint" />
            <mxPoint as="offset" />
          </mxGeometry>
        </mxCell>
        <mxCell id="CcIXAlpve1feXXLRhf_W-3" value="name" style="html=1;verticalAlign=bottom;endArrow=open;dashed=1;endSize=8;curved=0;rounded=0;exitX=0;exitY=1;exitDx=0;exitDy=-5;" parent="1" source="CcIXAlpve1feXXLRhf_W-1" target="M_690RD-DnkeSANrypyQ-12" edge="1">
          <mxGeometry relative="1" as="geometry">
            <mxPoint x="455" y="575" as="targetPoint" />
          </mxGeometry>
        </mxCell>
        <mxCell id="CcIXAlpve1feXXLRhf_W-4" value="" style="endArrow=none;dashed=1;html=1;rounded=0;entryX=0.5;entryY=1;entryDx=0;entryDy=0;" parent="1" target="CcIXAlpve1feXXLRhf_W-1" edge="1">
          <mxGeometry width="50" height="50" relative="1" as="geometry">
            <mxPoint x="529.5" y="565" as="sourcePoint" />
            <mxPoint x="529.5" y="340" as="targetPoint" />
          </mxGeometry>
        </mxCell>
        <mxCell id="CcIXAlpve1feXXLRhf_W-1" value="" style="html=1;points=[[0,0,0,0,5],[0,1,0,0,-5],[1,0,0,0,5],[1,1,0,0,-5]];perimeter=orthogonalPerimeter;outlineConnect=0;targetShapes=umlLifeline;portConstraint=eastwest;newEdgeStyle={&quot;curved&quot;:0,&quot;rounded&quot;:0};" parent="1" vertex="1">
          <mxGeometry x="525" y="507.5" width="10" height="30" as="geometry" />
        </mxCell>
      </root>
    </mxGraphModel>
  </diagram>
</mxfile>
